<?xml version="1.0" encoding="UTF-8" standalone="no"?>
<svg
   data-name="Layer 2"
   version="1.1"
   viewBox="0 0 500 500"
   id="svg4"
   sodipodi:docname="Polaris-Utilities.svg"
   inkscape:version="1.3.2 (091e20e, 2023-11-25)"
   xmlns:inkscape="http://www.inkscape.org/namespaces/inkscape"
   xmlns:sodipodi="http://sodipodi.sourceforge.net/DTD/sodipodi-0.dtd"
   xmlns="http://www.w3.org/2000/svg"
   xmlns:svg="http://www.w3.org/2000/svg">
  <sodipodi:namedview
     id="namedview4"
     pagecolor="#ffffff"
     bordercolor="#000000"
     borderopacity="0.25"
     inkscape:showpageshadow="2"
     inkscape:pageopacity="0.0"
     inkscape:pagecheckerboard="0"
     inkscape:deskcolor="#d1d1d1"
     inkscape:zoom="1.27"
     inkscape:cx="250"
     inkscape:cy="250"
     inkscape:window-width="1392"
     inkscape:window-height="952"
     inkscape:window-x="0"
     inkscape:window-y="25"
     inkscape:window-maximized="0"
     inkscape:current-layer="g4" />
  <defs
     id="defs1">
    <style
       id="style1">.cls-1 {
        fill: #7ac143;
      }

      .cls-2 {
        fill: #f47b20;
      }

      .cls-3 {
        fill: #ec008c;
      }

      .cls-4 {
        fill: #00aeef;
      }

      .cls-5 {
        fill: #2e3192;
      }</style>
  </defs>
  <g
     id="g4">
    <polygon
       class="cls-4"
       points="196.77 226.63 171.28 252.12 105.62 241.46"
       fill="#e4d000"
       id="polygon1"
       style="fill:#e7e700;fill-opacity:1" />
    <polygon
       class="cls-1"
       points="274.61 301.99 278.92 277.33 303.23 273.37 328.57 248.03 262.62 237.33 237.22 262.83 247.91 328.69"
       fill="#e4d000"
       id="polygon2"
       style="fill:#e7e700;fill-opacity:1" />
    <polygon
       class="cls-3"
       points="225.23 198.16 220.92 222.83 196.61 226.78 171.28 252.12 237.22 262.83 262.62 237.33 251.93 171.47"
       id="polygon3"
       style="fill:#000000;fill-opacity:1" />
    <polyline
       class="cls-4"
       points="225.23 198.16 251.93 171.47 251.99 171.87 241.32 106.13 225.13 198.73"
       fill="#e4d000"
       id="polyline3"
       style="fill:#e7e700;fill-opacity:1" />
    <polygon
       class="cls-2"
       points="303.23 273.37 328.72 247.88 394.38 258.54"
       id="polygon4"
       style="fill:#000000;fill-opacity:1" />
    <polyline
       class="cls-2"
       points="274.77 301.84 248.07 328.53 248.01 328.13 258.68 393.87 274.87 301.27"
       id="polyline4"
       style="fill:#000000;fill-opacity:1" />
  </g>
  <path
     class="cls-5"
     d="m285 215-35-215-35 215-215 35 215 35 35 215 35-215 215-35-215-35zm-5.9 62.2-20.4 116.7-21.3-131.2-131.2-21.3 114.9-18.7 20.4-116.7 21.3 131.2 131.2 21.3-114.9 18.7z"
     id="path4" />
</svg>
